name C:\Users\r0593348\3dpredictsim\Results\Batchsim_tmt_linear\Pog_s1_tmt_bCst_d05_k2000_ig24.mot
datacolumns 128
datarows 4
range 1.60815620 1.64031932
endheader
time	pelvis_tilt	pelvis_list	pelvis_rotation	pelvis_tx	pelvis_ty	pelvis_tz	hip_flexion_l	hip_adduction_l	hip_rotation_l	hip_flexion_r	hip_adduction_r	hip_rotation_r	knee_angle_l	knee_angle_r	ankle_angle_l	ankle_angle_r	subtalar_angle_l	subtalar_angle_r	tmt_angle_l	tmt_angle_r	mtp_angle_l	mtp_angle_r	lumbar_extension	lumbar_bending	lumbar_rotation	arm_flex_l	arm_add_l	arm_rot_l	arm_flex_r	arm_add_r	arm_rot_r	elbow_flex_l	elbow_flex_r	pro_sup_l	pro_sup_r	glut_med1_l/activation	glut_med2_l/activation	glut_med3_l/activation	glut_min1_l/activation	glut_min2_l/activation	glut_min3_l/activation	semimem_l/activation	semiten_l/activation	bifemlh_l/activation	bifemsh_l/activation	sar_l/activation	add_long_l/activation	add_brev_l/activation	add_mag1_l/activation	add_mag2_l/activation	add_mag3_l/activation	tfl_l/activation	pect_l/activation	grac_l/activation	glut_max1_l/activation	glut_max2_l/activation	glut_max3_l/activation	iliacus_l/activation	psoas_l/activation	quad_fem_l/activation	gem_l/activation	peri_l/activation	rect_fem_l/activation	vas_med_l/activation	vas_int_l/activation	vas_lat_l/activation	med_gas_l/activation	lat_gas_l/activation	soleus_l/activation	tib_post_l/activation	flex_dig_l/activation	flex_hal_l/activation	tib_ant_l/activation	per_brev_l/activation	per_long_l/activation	per_tert_l/activation	ext_dig_l/activation	ext_hal_l/activation	ercspn_l/activation	intobl_l/activation	extobl_l/activation	glut_med1_r/activation	glut_med2_r/activation	glut_med3_r/activation	glut_min1_r/activation	glut_min2_r/activation	glut_min3_r/activation	semimem_r/activation	semiten_r/activation	bifemlh_r/activation	bifemsh_r/activation	sar_r/activation	add_long_r/activation	add_brev_r/activation	add_mag1_r/activation	add_mag2_r/activation	add_mag3_r/activation	tfl_r/activation	pect_r/activation	grac_r/activation	glut_max1_r/activation	glut_max2_r/activation	glut_max3_r/activation	iliacus_r/activation	psoas_r/activation	quad_fem_r/activation	gem_r/activation	peri_r/activation	rect_fem_r/activation	vas_med_r/activation	vas_int_r/activation	vas_lat_r/activation	med_gas_r/activation	lat_gas_r/activation	soleus_r/activation	tib_post_r/activation	flex_dig_r/activation	flex_hal_r/activation	tib_ant_r/activation	per_brev_r/activation	per_long_r/activation	per_tert_r/activation	ext_dig_r/activation	ext_hal_r/activation	ercspn_r/activation	intobl_r/activation	extobl_r/activation	
          1.60815620	         -2.92862095	          2.16741504	         -5.28093466	          2.01019525	          0.85887102	          0.00187633	         31.63571312	          3.10280491	         -2.02470778	        -17.89583852	         -1.74266896	          7.04153589	        -15.81012883	         -7.36663125	          6.33433320	          0.59658530	         -1.51157568	         11.42188566	          0.01799660	          0.50942591	         -0.11993164	         21.91319909	         -2.00523725	         -0.62728903	          1.84155594	         -8.60521264	        -13.53770934	          6.31339472	          6.89949490	        -13.45563921	         16.25761368	         15.14615318	         36.28443870	         86.51662706	         86.51662706	          0.05000029	          0.05000027	          0.05000755	          0.05000025	          0.05000031	          0.05000086	          0.05893379	          0.05893365	          0.14679006	          0.05000064	          0.05000171	          0.09465214	          0.14374733	          0.21011186	          0.16842171	          0.10845521	          0.05893408	          0.05210692	          0.05893424	          0.05000483	          0.06946421	          0.10556650	          0.05000045	          0.05000061	          0.21251448	          0.05004162	          0.05000428	          0.05019289	          0.12866596	          0.13259650	          0.11003632	          0.05893412	          0.05893375	          0.05893418	          0.05000007	          0.05000109	          0.05000153	          0.50920285	          0.35492409	          0.20363256	          0.27475515	          0.56210708	          0.25546279	          0.06679892	          0.10342793	          0.10897438	          0.30450745	          0.10440903	          0.07836825	          0.33239252	          0.22120943	          0.10931089	          0.05000233	          0.05000039	          0.05000025	          0.07775793	          0.11071224	          0.05834419	          0.05000090	          0.05000078	          0.05000159	          0.05000116	          0.30819780	          0.05000538	          0.05000079	          0.05000366	          0.05000295	          0.05000205	          0.33982013	          0.57947209	          0.05000020	          0.05000071	          0.05000039	          0.18627111	          0.05809357	          0.05000468	          0.05000477	          0.31042078	          0.42069691	          0.29232534	          0.26334325	          0.27784909	          0.35271573	          0.05000003	          0.06942463	          0.17952792	          0.05000030	          0.05000007	          0.05000021	          0.05000002	          0.05000004	          0.05000005	
          1.61887724	         -2.92209630	          2.26678196	         -5.54898631	          2.02628141	          0.85781238	          0.00167103	         30.99792782	          3.48581188	         -1.82068246	        -17.67785894	         -2.03671493	          6.81329808	        -15.60937965	         -9.43830120	          5.78074765	         -0.24017865	         -1.98994291	         12.37467485	          0.02160025	          0.48171219	         -0.10573713	         22.90983194	         -1.81351149	         -0.86410373	          1.91626787	         -9.59633727	        -13.53621952	          6.15865937	          6.71930602	        -13.46795846	         16.49454376	         14.98983483	         37.35957038	         86.51662706	         86.51662706	          0.05485468	          0.05000798	          0.05000045	          0.05014284	          0.05000575	          0.05000106	          0.05000007	          0.05000019	          0.12453750	          0.05000020	          0.05000199	          0.08030358	          0.12195602	          0.27412871	          0.19914087	          0.09907370	          0.05000038	          0.05000247	          0.05000071	          0.05893411	          0.05893457	          0.11712527	          0.05000035	          0.05000077	          0.51309581	          0.12508414	          0.10167126	          0.06946497	          0.22429964	          0.22769506	          0.19321522	          0.05000001	          0.05000002	          0.05000000	          0.05020717	          0.06946406	          0.05015455	          0.58130175	          0.33380900	          0.21346184	          0.47249389	          0.59688772	          0.23422501	          0.05667248	          0.08774866	          0.09245429	          0.25834539	          0.08858105	          0.06648835	          0.28200325	          0.18767502	          0.09273985	          0.05000648	          0.05000082	          0.05000149	          0.06597016	          0.09392903	          0.14121814	          0.10446827	          0.06946505	          0.05008060	          0.05004826	          0.26147639	          0.08494669	          0.05125434	          0.05000372	          0.05000246	          0.05000281	          0.28830477	          0.51619546	          0.05048299	          0.06483639	          0.05893460	          0.15803333	          0.08040338	          0.15802485	          0.15399539	          0.26336217	          0.35692089	          0.24800994	          0.22342167	          0.23572885	          0.29924578	          0.05000004	          0.05890022	          0.15286618	          0.05000016	          0.05000005	          0.05000021	          0.05000009	          0.06946481	          0.05000007	
          1.62959828	         -2.91146851	          2.36422236	         -5.79376625	          2.04264991	          0.85672083	          0.00148212	         30.20737053	          3.80888898	         -1.54464340	        -17.38544591	         -2.32037261	          6.57394462	        -15.90065086	        -11.63960679	          5.23848403	         -1.23394548	         -2.49980485	         13.26585925	         -0.01495129	          0.44796105	         -0.15577442	         23.73271239	         -1.60115213	         -1.10500758	          1.98088247	        -10.60200599	        -13.53870271	          6.04512118	          6.45902967	        -13.48110487	         16.66862050	         14.87005811	         38.40335392	         86.51662706	         86.51662706	          0.29255635	          0.05000014	          0.32759343	          0.05000032	          0.05000030	          0.26943613	          0.08731702	          0.05000067	          0.12893567	          0.05000019	          0.05000081	          0.08187721	          0.20720179	          0.23257245	          0.16895539	          0.12715605	          0.05000101	          0.06942057	          0.13222624	          0.05000024	          0.05000043	          0.09936982	          0.05798277	          0.05000152	          0.43531249	          0.10612202	          0.18220478	          0.05893437	          0.19029676	          0.19317748	          0.16392460	          0.05893428	          0.05893431	          0.05893421	          0.05893413	          0.05893387	          0.05893419	          0.49317868	          0.33854570	          0.18110197	          0.40086637	          0.61283514	          0.19871746	          0.05000008	          0.09650770	          0.07843858	          0.35399068	          0.07515254	          0.05640915	          0.23925300	          0.15922430	          0.07868090	          0.05000320	          0.05000085	          0.05000084	          0.05596940	          0.07969014	          0.15417337	          0.17649751	          0.05893572	          0.05893274	          0.05893075	          0.22183820	          0.08196921	          0.05194624	          0.05015316	          0.05023256	          0.05893150	          0.24459899	          0.48366418	          0.05893397	          0.05500807	          0.05000044	          0.13407613	          0.08155963	          0.13406934	          0.13065063	          0.22343747	          0.30281306	          0.21041258	          0.18955185	          0.19999345	          0.25388140	          0.05000003	          0.05000072	          0.19844231	          0.05000012	          0.05000010	          0.05000020	          0.05866386	          0.05893422	          0.05000271	
          1.64031932	         -2.89853168	          2.46055299	         -6.00750762	          2.05912516	          0.85560967	          0.00128337	         29.28171189	          4.09567949	         -1.25733515	        -16.99166754	         -2.59149523	          6.33239630	        -16.20613132	        -13.99812839	          4.88219995	         -2.34904649	         -3.02250162	         14.08535684	         -0.00969392	          0.40160378	         -0.15969933	         24.29466611	         -1.38561005	         -1.34908955	          2.03597869	        -11.57557221	        -13.54449455	          5.99271545	          6.14541287	        -13.49892829	         16.79309286	         14.75430419	         39.40075292	         86.51662706	         86.51662706	          0.33875769	          0.30374422	          0.38555836	          0.20265248	          0.18106102	          0.22859119	          0.07408046	          0.11902933	          0.10938966	          0.08187677	          0.05000395	          0.06946501	          0.17579084	          0.19731588	          0.16912644	          0.15914717	          0.05000034	          0.05889727	          0.11313875	          0.23142838	          0.17326872	          0.14249609	          0.05000016	          0.05000018	          0.36932087	          0.09003469	          0.15458380	          0.05000017	          0.16144898	          0.22448245	          0.15329329	          0.05000010	          0.05000015	          0.05000002	          0.05000000	          0.05000043	          0.05000024	          0.61743990	          0.36778520	          0.18487325	          0.65059700	          0.66685804	          0.34865630	          0.07544354	          0.08187757	          0.06654760	          0.30032778	          0.06375973	          0.05000006	          0.30414050	          0.13508661	          0.06675325	          0.05000396	          0.05000020	          0.05000017	          0.05000024	          0.06761032	          0.15723596	          0.14974162	          0.05000162	          0.05000118	          0.05000067	          0.20854607	          0.06955077	          0.05000055	          0.05000120	          0.05000077	          0.05000052	          0.20751881	          0.43951738	          0.05000010	          0.05000041	          0.05000022	          0.11375107	          0.08122616	          0.11374976	          0.11375044	          0.18956521	          0.25690776	          0.17851484	          0.16081655	          0.16967537	          0.21539407	          0.10013404	          0.14288589	          0.16835965	          0.05000244	          0.16756506	          0.05000149	          0.09087340	          0.05000003	          0.05000005	
